<svg version="1.1" xmlns="http://www.w3.org/2000/svg" viewBox="0 0 182.71028574386014 182.71028620965268" width="182.71028574386014" height="182.71028620965268" filter="invert(93%) hue-rotate(180deg)" class="excalidraw-svg">
  <!-- svg-source:excalidraw -->
  
  <defs>
    <style class="style-fonts">
      @font-face {
        font-family: "Virgil";
        src: url("https://excalidraw.com/Virgil.woff2");
      }
      @font-face {
        font-family: "Cascadia";
        src: url("https://excalidraw.com/Cascadia.woff2");
      }
      @font-face {
        font-family: "Assistant";
        src: url("https://excalidraw.com/Assistant-Regular.woff2");
      }
    </style>
    
  </defs>
  <g stroke-linecap="round" transform="translate(18.267526620698504 27.359214924405705) rotate(0 16.91309330720776 22.732116625398845)"><path d="M8.46 0 C13.43 0, 18.4 0, 25.37 0 C31.01 0, 33.83 2.82, 33.83 8.46 C33.83 19.71, 33.83 30.97, 33.83 37.01 C33.83 42.65, 31.01 45.46, 25.37 45.46 C20.69 45.46, 16.01 45.46, 8.46 45.46 C2.82 45.46, 0 42.65, 0 37.01 C0 31.29, 0 25.57, 0 8.46 C0 2.82, 2.82 0, 8.46 0" stroke="none" stroke-width="0" fill="#a5d8ff"/><path d="M8.46 0 C14.74 0, 21.03 0, 25.37 0 M8.46 0 C13.18 0, 17.9 0, 25.37 0 M25.37 0 C31.01 0, 33.83 2.82, 33.83 8.46 M25.37 0 C31.01 0, 33.83 2.82, 33.83 8.46 M33.83 8.46 C33.83 17.38, 33.83 26.3, 33.83 37.01 M33.83 8.46 C33.83 14.77, 33.83 21.09, 33.83 37.01 M33.83 37.01 C33.83 42.65, 31.01 45.46, 25.37 45.46 M33.83 37.01 C33.83 42.65, 31.01 45.46, 25.37 45.46 M25.37 45.46 C19.24 45.46, 13.11 45.46, 8.46 45.46 M25.37 45.46 C18.84 45.46, 12.31 45.46, 8.46 45.46 M8.46 45.46 C2.82 45.46, 0 42.65, 0 37.01 M8.46 45.46 C2.82 45.46, 0 42.65, 0 37.01 M0 37.01 C0 26.57, 0 16.13, 0 8.46 M0 37.01 C0 29.59, 0 22.17, 0 8.46 M0 8.46 C0 2.82, 2.82 0, 8.46 0 M0 8.46 C0 2.82, 2.82 0, 8.46 0" stroke="transparent" stroke-width="4" fill="none"/></g><g stroke-linecap="round" transform="translate(127.2787263807752 26.121672123637495) rotate(0 16.91309330720776 19.526166807557928)"><path d="M8.46 0 C12.47 0, 16.48 0, 25.37 0 C31.01 0, 33.83 2.82, 33.83 8.46 C33.83 14.72, 33.83 20.97, 33.83 30.6 C33.83 36.23, 31.01 39.05, 25.37 39.05 C20.4 39.05, 15.43 39.05, 8.46 39.05 C2.82 39.05, 0 36.23, 0 30.6 C0 25.2, 0 19.81, 0 8.46 C0 2.82, 2.82 0, 8.46 0" stroke="none" stroke-width="0" fill="#eaddd7"/><path d="M8.46 0 C12.29 0, 16.13 0, 25.37 0 M8.46 0 C13.18 0, 17.9 0, 25.37 0 M25.37 0 C31.01 0, 33.83 2.82, 33.83 8.46 M25.37 0 C31.01 0, 33.83 2.82, 33.83 8.46 M33.83 8.46 C33.83 16.31, 33.83 24.16, 33.83 30.6 M33.83 8.46 C33.83 15.1, 33.83 21.75, 33.83 30.6 M33.83 30.6 C33.83 36.23, 31.01 39.05, 25.37 39.05 M33.83 30.6 C33.83 36.23, 31.01 39.05, 25.37 39.05 M25.37 39.05 C21.07 39.05, 16.77 39.05, 8.46 39.05 M25.37 39.05 C19.34 39.05, 13.3 39.05, 8.46 39.05 M8.46 39.05 C2.82 39.05, 0 36.23, 0 30.6 M8.46 39.05 C2.82 39.05, 0 36.23, 0 30.6 M0 30.6 C0 25.04, 0 19.48, 0 8.46 M0 30.6 C0 25.64, 0 20.68, 0 8.46 M0 8.46 C0 2.82, 2.82 0, 8.46 0 M0 8.46 C0 2.82, 2.82 0, 8.46 0" stroke="transparent" stroke-width="4" fill="none"/></g><g stroke-linecap="round" transform="translate(131.66499242368468 26.12167165477456) rotate(0 14.62836834623721 26.970735734431486)"><path d="M7.31 0 C12.12 0, 16.93 0, 21.94 0 C26.82 0, 29.26 2.44, 29.26 7.31 C29.26 22.69, 29.26 38.06, 29.26 46.63 C29.26 51.5, 26.82 53.94, 21.94 53.94 C18.71 53.94, 15.49 53.94, 7.31 53.94 C2.44 53.94, 0 51.5, 0 46.63 C0 33.14, 0 19.66, 0 7.31 C0 2.44, 2.44 0, 7.31 0" stroke="none" stroke-width="0" fill="#eaddd7"/><path d="M7.31 0 C11.9 0, 16.48 0, 21.94 0 M7.31 0 C11.09 0, 14.87 0, 21.94 0 M21.94 0 C26.82 0, 29.26 2.44, 29.26 7.31 M21.94 0 C26.82 0, 29.26 2.44, 29.26 7.31 M29.26 7.31 C29.26 19, 29.26 30.69, 29.26 46.63 M29.26 7.31 C29.26 18.27, 29.26 29.23, 29.26 46.63 M29.26 46.63 C29.26 51.5, 26.82 53.94, 21.94 53.94 M29.26 46.63 C29.26 51.5, 26.82 53.94, 21.94 53.94 M21.94 53.94 C18.25 53.94, 14.55 53.94, 7.31 53.94 M21.94 53.94 C17.76 53.94, 13.58 53.94, 7.31 53.94 M7.31 53.94 C2.44 53.94, 0 51.5, 0 46.63 M7.31 53.94 C2.44 53.94, 0 51.5, 0 46.63 M0 46.63 C0 31.28, 0 15.93, 0 7.31 M0 46.63 C0 35.22, 0 23.81, 0 7.31 M0 7.31 C0 2.44, 2.44 0, 7.31 0 M0 7.31 C0 2.44, 2.44 0, 7.31 0" stroke="transparent" stroke-width="4" fill="none"/></g><g stroke-linecap="round" transform="translate(18.2675266775243 27.359215067497075) rotate(0 14.005165583049575 26.351964054070578)"><path d="M7 0 C10.41 0, 13.82 0, 21.01 0 C25.68 0, 28.01 2.33, 28.01 7 C28.01 14.91, 28.01 22.82, 28.01 45.7 C28.01 50.37, 25.68 52.7, 21.01 52.7 C16.01 52.7, 11.02 52.7, 7 52.7 C2.33 52.7, 0 50.37, 0 45.7 C0 32.89, 0 20.08, 0 7 C0 2.33, 2.33 0, 7 0" stroke="none" stroke-width="0" fill="#a5d8ff"/><path d="M7 0 C10.81 0, 14.61 0, 21.01 0 M7 0 C10.89 0, 14.79 0, 21.01 0 M21.01 0 C25.68 0, 28.01 2.33, 28.01 7 M21.01 0 C25.68 0, 28.01 2.33, 28.01 7 M28.01 7 C28.01 17.66, 28.01 28.32, 28.01 45.7 M28.01 7 C28.01 15.28, 28.01 23.55, 28.01 45.7 M28.01 45.7 C28.01 50.37, 25.68 52.7, 21.01 52.7 M28.01 45.7 C28.01 50.37, 25.68 52.7, 21.01 52.7 M21.01 52.7 C17.86 52.7, 14.72 52.7, 7 52.7 M21.01 52.7 C16.78 52.7, 12.56 52.7, 7 52.7 M7 52.7 C2.33 52.7, 0 50.37, 0 45.7 M7 52.7 C2.33 52.7, 0 50.37, 0 45.7 M0 45.7 C0 32.46, 0 19.22, 0 7 M0 45.7 C0 35.77, 0 25.83, 0 7 M0 7 C0 2.33, 2.33 0, 7 0 M0 7 C0 2.33, 2.33 0, 7 0" stroke="transparent" stroke-width="4" fill="none"/></g><g stroke-linecap="round" transform="translate(68.87044643339198 76.05064652700918) rotate(0 20.7957639356149 20.7957639356149)"><path d="M29.63 2.33 C33.67 3.75, 37.78 7.82, 39.79 11.61 C41.8 15.39, 42.88 20.78, 41.67 25.07 C40.47 29.36, 36.25 34.55, 32.54 37.34 C28.84 40.12, 23.73 42.13, 19.42 41.78 C15.11 41.43, 10.01 38.53, 6.66 35.22 C3.31 31.92, -0.18 26.39, -0.68 21.97 C-1.19 17.54, 0.84 12.21, 3.62 8.66 C6.4 5.12, 11.35 1.72, 15.99 0.68 C20.62 -0.36, 28.61 1.58, 31.42 2.42 C34.23 3.27, 33.03 5.52, 32.84 5.75 M13.38 2.22 C17.4 0.69, 23.25 0.77, 27.43 2.02 C31.61 3.26, 36.02 5.8, 38.48 9.67 C40.93 13.55, 42.81 20.83, 42.14 25.27 C41.47 29.7, 38.12 33.71, 34.45 36.3 C30.78 38.88, 24.49 40.92, 20.13 40.77 C15.77 40.62, 11.77 38.08, 8.3 35.41 C4.82 32.74, 0.18 28.72, -0.72 24.76 C-1.62 20.8, 0.34 15.35, 2.9 11.64 C5.46 7.93, 12.73 4.06, 14.65 2.5 C16.56 0.94, 14.59 2.35, 14.37 2.28" stroke="none" stroke-width="0" fill="#96f2d7"/><path d="M24.51 0.42 C28.82 1.15, 34.91 4.83, 37.86 8.43 C40.81 12.03, 42.57 17.71, 42.19 21.99 C41.81 26.27, 38.55 30.92, 35.58 34.11 C32.61 37.31, 28.73 40.52, 24.36 41.16 C19.99 41.8, 13.18 40.08, 9.35 37.93 C5.52 35.79, 2.66 32.5, 1.38 28.3 C0.11 24.09, 0.21 16.93, 1.69 12.7 C3.16 8.46, 6.03 4.78, 10.24 2.9 C14.44 1.02, 23.87 1.55, 26.91 1.44 C29.94 1.33, 28.44 2.08, 28.45 2.26 M20.31 -1.3 C24.23 -1.24, 29.63 2.48, 33.22 5.7 C36.8 8.91, 40.76 13.9, 41.8 18.01 C42.85 22.11, 42.1 26.33, 39.48 30.33 C36.85 34.32, 30.66 40.2, 26.06 41.99 C21.47 43.77, 15.64 42.92, 11.91 41.02 C8.17 39.13, 5.65 34.79, 3.64 30.62 C1.62 26.44, -0.71 20.11, -0.18 15.99 C0.35 11.86, 3.11 8.63, 6.84 5.86 C10.57 3.08, 19.98 0.33, 22.22 -0.65 C24.47 -1.62, 20.5 -0.35, 20.29 0.01" stroke="#1e1e1e" stroke-width="4" fill="none"/></g><g stroke-linecap="round" transform="translate(31.354140442351422 59.048122590734636) rotate(0 9.528896054872916 9.528896054872916)"><path d="M4.76 0 C7.44 0, 10.12 0, 14.29 0 C17.47 0, 19.06 1.59, 19.06 4.76 C19.06 7.32, 19.06 9.87, 19.06 14.29 C19.06 17.47, 17.47 19.06, 14.29 19.06 C10.86 19.06, 7.43 19.06, 4.76 19.06 C1.59 19.06, 0 17.47, 0 14.29 C0 12.17, 0 10.06, 0 4.76 C0 1.59, 1.59 0, 4.76 0" stroke="none" stroke-width="0" fill="#1971c2"/><path d="M4.76 0 C8.56 0, 12.35 0, 14.29 0 M4.76 0 C7.9 0, 11.04 0, 14.29 0 M14.29 0 C17.47 0, 19.06 1.59, 19.06 4.76 M14.29 0 C17.47 0, 19.06 1.59, 19.06 4.76 M19.06 4.76 C19.06 8.18, 19.06 11.59, 19.06 14.29 M19.06 4.76 C19.06 7, 19.06 9.24, 19.06 14.29 M19.06 14.29 C19.06 17.47, 17.47 19.06, 14.29 19.06 M19.06 14.29 C19.06 17.47, 17.47 19.06, 14.29 19.06 M14.29 19.06 C11.56 19.06, 8.83 19.06, 4.76 19.06 M14.29 19.06 C11.25 19.06, 8.2 19.06, 4.76 19.06 M4.76 19.06 C1.59 19.06, 0 17.47, 0 14.29 M4.76 19.06 C1.59 19.06, 0 17.47, 0 14.29 M0 14.29 C0 11.21, 0 8.12, 0 4.76 M0 14.29 C0 11.68, 0 9.07, 0 4.76 M0 4.76 C0 1.59, 1.59 0, 4.76 0 M0 4.76 C0 1.59, 1.59 0, 4.76 0" stroke="#1e1e1e" stroke-width="4" fill="none"/></g><g stroke-linecap="round" transform="translate(128.92048744235137 59.048122590734636) rotate(0 9.528896054872916 9.528896054872916)"><path d="M4.76 0 C6.96 0, 9.15 0, 14.29 0 C17.47 0, 19.06 1.59, 19.06 4.76 C19.06 7.75, 19.06 10.74, 19.06 14.29 C19.06 17.47, 17.47 19.06, 14.29 19.06 C10.96 19.06, 7.63 19.06, 4.76 19.06 C1.59 19.06, 0 17.47, 0 14.29 C0 11.39, 0 8.48, 0 4.76 C0 1.59, 1.59 0, 4.76 0" stroke="none" stroke-width="0" fill="#846358"/><path d="M4.76 0 C6.69 0, 8.61 0, 14.29 0 M4.76 0 C8.44 0, 12.11 0, 14.29 0 M14.29 0 C17.47 0, 19.06 1.59, 19.06 4.76 M14.29 0 C17.47 0, 19.06 1.59, 19.06 4.76 M19.06 4.76 C19.06 7.35, 19.06 9.94, 19.06 14.29 M19.06 4.76 C19.06 7.4, 19.06 10.04, 19.06 14.29 M19.06 14.29 C19.06 17.47, 17.47 19.06, 14.29 19.06 M19.06 14.29 C19.06 17.47, 17.47 19.06, 14.29 19.06 M14.29 19.06 C11.26 19.06, 8.23 19.06, 4.76 19.06 M14.29 19.06 C10.97 19.06, 7.64 19.06, 4.76 19.06 M4.76 19.06 C1.59 19.06, 0 17.47, 0 14.29 M4.76 19.06 C1.59 19.06, 0 17.47, 0 14.29 M0 14.29 C0 11.39, 0 8.48, 0 4.76 M0 14.29 C0 10.54, 0 6.8, 0 4.76 M0 4.76 C0 1.59, 1.59 0, 4.76 0 M0 4.76 C0 1.59, 1.59 0, 4.76 0" stroke="#1e1e1e" stroke-width="4" fill="none"/></g><g stroke-linecap="round" transform="translate(80.25717544235135 134.33688959073464) rotate(0 9.528896054872916 9.528896054872916)"><path d="M4.76 0 C7.32 0, 9.88 0, 14.29 0 C17.47 0, 19.06 1.59, 19.06 4.76 C19.06 8.12, 19.06 11.48, 19.06 14.29 C19.06 17.47, 17.47 19.06, 14.29 19.06 C10.87 19.06, 7.46 19.06, 4.76 19.06 C1.59 19.06, 0 17.47, 0 14.29 C0 11.93, 0 9.56, 0 4.76 C0 1.59, 1.59 0, 4.76 0" stroke="none" stroke-width="0" fill="#d0bfff"/><path d="M4.76 0 C7.06 0, 9.36 0, 14.29 0 M4.76 0 C8.3 0, 11.83 0, 14.29 0 M14.29 0 C17.47 0, 19.06 1.59, 19.06 4.76 M14.29 0 C17.47 0, 19.06 1.59, 19.06 4.76 M19.06 4.76 C19.06 8.16, 19.06 11.56, 19.06 14.29 M19.06 4.76 C19.06 7.61, 19.06 10.46, 19.06 14.29 M19.06 14.29 C19.06 17.47, 17.47 19.06, 14.29 19.06 M19.06 14.29 C19.06 17.47, 17.47 19.06, 14.29 19.06 M14.29 19.06 C10.85 19.06, 7.4 19.06, 4.76 19.06 M14.29 19.06 C11.66 19.06, 9.03 19.06, 4.76 19.06 M4.76 19.06 C1.59 19.06, 0 17.47, 0 14.29 M4.76 19.06 C1.59 19.06, 0 17.47, 0 14.29 M0 14.29 C0 11.07, 0 7.86, 0 4.76 M0 14.29 C0 10.97, 0 7.65, 0 4.76 M0 4.76 C0 1.59, 1.59 0, 4.76 0 M0 4.76 C0 1.59, 1.59 0, 4.76 0" stroke="#1e1e1e" stroke-width="4" fill="none"/></g><g stroke-linecap="round"><g transform="translate(127.81487079008684 67.37311874552506) rotate(0 -18.356904026538075 4.056388940205807)"><path d="M0 0 C-2.89 0.02, -12.79 0.09, -17.33 0.14 C-21.86 0.18, -23.99 -1.05, -27.23 0.28 C-30.46 1.6, -35.13 6.81, -36.71 8.11 M0 0 C-2.89 0.02, -12.79 0.09, -17.33 0.14 C-21.86 0.18, -23.99 -1.05, -27.23 0.28 C-30.46 1.6, -35.13 6.81, -36.71 8.11" stroke="#1e1e1e" stroke-width="4" fill="none"/></g></g><mask/><g stroke-linecap="round"><g transform="translate(50.39966179721421 66.41058330154857) rotate(0 19.663193136975792 4.537656662194081)"><path d="M0 0 C2.54 0.07, 10.29 0.21, 15.26 0.41 C20.24 0.62, 25.83 -0.21, 29.84 1.24 C33.85 2.68, 37.75 7.77, 39.33 9.08 M0 0 C2.54 0.07, 10.29 0.21, 15.26 0.41 C20.24 0.62, 25.83 -0.21, 29.84 1.24 C33.85 2.68, 37.75 7.77, 39.33 9.08" stroke="#1e1e1e" stroke-width="4" fill="none"/></g></g><mask/><g stroke-linecap="round" transform="translate(5 5) rotate(0 86.35514287193007 86.35514287193004)"><path d="M32 0 C68.76 0, 105.51 0, 140.71 0 M140.71 0 C162.04 0, 172.71 10.67, 172.71 32 M172.71 32 C172.71 54.82, 172.71 77.63, 172.71 140.71 M172.71 140.71 C172.71 162.04, 162.04 172.71, 140.71 172.71 M140.71 172.71 C109.4 172.71, 78.1 172.71, 32 172.71 M32 172.71 C10.67 172.71, 0 162.04, 0 140.71 M0 140.71 C0 106.1, 0 71.48, 0 32 M0 32 C0 10.67, 10.67 0, 32 0" stroke="transparent" stroke-width="2.5" fill="none" stroke-dasharray="8 10"/></g><g stroke-linecap="round"><g transform="translate(65.96360242314836 66.69582489487902) rotate(0 5.012244992357864 0.08793036572185997)"><path d="M0 0 C0.88 0.03, 3.61 0.15, 5.28 0.18 C6.95 0.21, 9.23 0.18, 10.02 0.18 M0 0 C0.88 0.03, 3.61 0.15, 5.28 0.18 C6.95 0.21, 9.23 0.18, 10.02 0.18" stroke="#1971c2" stroke-width="4" fill="none"/></g></g><mask/><g stroke-linecap="round"><g transform="translate(98.48547334415889 68.82773878389975) rotate(0 4.067441759421854 -0.8125945634088794)"><path d="M0 0 C0.57 -0.27, 2.09 -1.37, 3.44 -1.63 C4.8 -1.88, 7.35 -1.53, 8.13 -1.51 M0 0 C0.57 -0.27, 2.09 -1.37, 3.44 -1.63 C4.8 -1.88, 7.35 -1.53, 8.13 -1.51" stroke="#846358" stroke-width="4" fill="none"/></g></g><mask/><g stroke-linecap="round"><g transform="translate(109.32221230816322 143.3423611931069) rotate(0 20.0809441276362 -24.33774056122553)"><path d="M0 0 C4.81 -1.73, 22.18 -5.4, 28.87 -10.36 C35.57 -15.33, 39.95 -23.41, 40.16 -29.8 C40.38 -36.18, 31.83 -45.53, 30.17 -48.68" stroke="#d0bfff" stroke-width="4.5" fill="none" stroke-dasharray="8 12"/></g></g><mask/><g stroke-linecap="round" transform="translate(5.575611687253513 9.289366107221781) rotate(0 84.21046005121548 84.21046005121545)"><path d="M14.58 38.36 C19.58 28.84, 28.82 21.05, 38.38 15.05 C47.94 9.05, 60.37 4.18, 71.95 2.36 C83.52 0.54, 96.77 1.43, 107.84 4.13 C118.9 6.82, 129.44 11.81, 138.32 18.51 C147.21 25.22, 156.35 33.78, 161.14 44.35 C165.93 54.93, 167.04 69.98, 167.07 81.98 C167.11 93.97, 165.43 106.26, 161.34 116.3 C157.25 126.33, 150.23 134.26, 142.52 142.17 C134.81 150.07, 125.59 159.49, 115.08 163.71 C104.58 167.94, 91.33 168.56, 79.49 167.53 C67.64 166.5, 54.2 162.88, 44.02 157.54 C33.84 152.21, 25.5 143.93, 18.43 135.51 C11.36 127.09, 4.76 118.08, 1.59 107.03 C-1.58 95.98, -2.87 80.92, -0.58 69.21 C1.7 57.5, 12.1 42.8, 15.3 36.76 C18.5 30.72, 17.48 32.32, 18.62 32.96 M27.87 24.78 C35.73 17.06, 48.83 9.81, 59.15 5.65 C69.48 1.5, 79.12 -1.26, 89.83 -0.13 C100.55 1.01, 113.44 6.32, 123.45 12.46 C133.47 18.6, 143.01 27.54, 149.93 36.72 C156.86 45.91, 161.92 56.98, 165.02 67.58 C168.12 78.18, 170.49 89.49, 168.53 100.31 C166.58 111.14, 160.28 123.05, 153.28 132.56 C146.28 142.06, 136.73 151.92, 126.52 157.35 C116.3 162.79, 103.3 163.62, 91.99 165.16 C80.68 166.7, 69.29 169.82, 58.64 166.57 C47.98 163.33, 36.34 153.79, 28.06 145.71 C19.78 137.62, 13.85 128.51, 8.95 118.08 C4.04 107.66, -1.53 94.26, -1.36 83.17 C-1.19 72.09, 4.82 61.93, 9.97 51.57 C15.12 41.21, 26.5 25.9, 29.55 21 C32.59 16.1, 28.07 20.95, 28.24 22.17" stroke="#099268" stroke-width="2" fill="none"/></g></svg>